<?xml version="1.0" standalone="no" ?>
<svg width="800px" height="500px" xmlns="http://www.w3.org/2000/svg" version="1.1">
<title>Diagonal line between two circles</title>

<!-- Line between the two circles -->
<line x1="0" y1="380" x2="475" y2="0" stroke="#ababab" stroke-width="4" />
<line x1="178" y1="238" x2="271" y2="163" stroke="black" stroke-width="4" />
<text x="224" y="220" font-family="Helvetica" font-weight="bold" font-size="18px">y = &#177;4x/5</text>

<!-- Upper right circle -->
<circle cx="350" cy="100" r="100" stroke="black" stroke-width="2" fill="none" />
<line x1="350" y1="100" x2="271" y2="163" stroke="red" stroke-width="4" />
<text x="310" y="151" font-family="Helvetica" fill="red" font-weight="bold" font-size="18px">r = 50</text>
<line x1="350" y1="100" x2="269" y2="100" stroke="red" stroke-width="4" />
<text text-anchor="middle" x="310" y="90" font-family="Helvetica" fill="red" font-weight="bold" font-size="18px">50cos&#952;</text>
<line x1="271" y1="100" x2="271" y2="165" stroke="red" stroke-width="4" />
<text x="208" y="132" font-family="Helvetica" fill="red" font-weight="bold" font-size="18px">50sin&#952;</text>

<!-- Lower left circle -->
<circle cx="100" cy="300" r="100" stroke="black" stroke-width="2" fill="none" />
<line x1="100" y1="300" x2="178" y2="238" stroke="red" stroke-width="4" />
<text x="80" y="269" font-family="Helvetica" fill="red" font-weight="bold" font-size="18px">r = 50</text>
<line x1="100" y1="300" x2="180" y2="300" stroke="red" stroke-width="4" />
<text text-anchor="middle" x="140" y="320" font-family="Helvetica" fill="red" font-weight="bold" font-size="18px">50cos&#952;</text>
<line x1="178" y1="300" x2="178" y2="240" stroke="red" stroke-width="4" />
<text x="188" y="280" font-family="Helvetica" fill="red" font-weight="bold" font-size="18px">50sin&#952;</text>

<!-- Points -->
<circle cx="350" cy="100" r="3" stroke="black" stroke-width="3" fill="black" />
<circle cx="100" cy="300" r="3" stroke="black" stroke-width="3" fill="black" />
<circle cx="178" cy="238" r="3" stroke="black" stroke-width="3" fill="black" />
<circle cx="271" cy="163" r="3" stroke="black" stroke-width="3" fill="black" />

</svg>
