<?xml version="1.0" standalone="no" ?>
<svg width="700px" height="500px" xmlns="http://www.w3.org/2000/svg" version="1.1">
<title>String DFA</title>

<!-- S_START -->
<circle cx="100" cy="200" r="50" stroke="black" stroke-width="2" fill="#ddddff" />
<text text-anchor="middle" x="100" y="205" font-family="Helvetica" font-weight="bold" font-size="18px">START</text>

<!-- State transition from S_START to S_TEXT -->
<line x1="150" y1="200" x2="300" y2="200" stroke="black" stroke-width="4" />
<text text-anchor="middle" x="225" y="190" font-family="Helvetica" font-weight="bold" font-size="18px">"</text>
<line x1="300" y1="200" x2="290" y2="190" stroke="black" stroke-width="4" />
<line x1="300" y1="200" x2="290" y2="210" stroke="black" stroke-width="4" />

<!-- S_TEXT -->
<circle cx="350" cy="200" r="50" stroke="black" stroke-width="2" fill="#ddddff" />
<text text-anchor="middle" x="350" y="205" font-family="Helvetica" font-weight="bold" font-size="18px">S_TEXT</text>

<!-- State transition from S_TEXT to S_TEXT -->
<path d="M 320 160 a 40 50, 0, 1 1, 60 0" stroke="black" stroke-width="4" fill="none" />
<text text-anchor="middle" x="350" y="70" font-family="Helvetica" font-weight="bold" font-size="18px">*</text>
<line x1="380" y1="160" x2="394" y2="156" stroke="black" stroke-width="4" />
<line x1="380" y1="160" x2="376" y2="146" stroke="black" stroke-width="4" />

<!-- State transition from S_TEXT to S_FINAL -->
<line x1="400" y1="200" x2="550" y2="200" stroke="black" stroke-width="4" />
<text text-anchor="middle" x="475" y="190" font-family="Helvetica" font-weight="bold" font-size="18px">"</text>
<line x1="550" y1="200" x2="540" y2="190" stroke="black" stroke-width="4" />
<line x1="550" y1="200" x2="540" y2="210" stroke="black" stroke-width="4" />

<!-- S_FINAL -->
<circle cx="600" cy="200" r="50" stroke="black" stroke-width="2" fill="#ddddff" />
<circle cx="600" cy="200" r="45" stroke="black" stroke-width="2" fill="#ddddff" />
<text text-anchor="middle" x="600" y="205" font-family="Helvetica" font-weight="bold" font-size="18px">S_FINAL</text>

<!-- S_TRAP -->
<circle cx="350" cy="400" r="50" stroke="black" stroke-width="2" fill="#ddddff" />
<text text-anchor="middle" x="350" y="405" font-family="Helvetica" font-weight="bold" font-size="18px">TRAP</text>

<!-- State transition from S_START to S_TRAP -->
<line x1="139" y1="232" x2="311" y2="369" stroke="black" stroke-width="4" />
<text x="235" y="290" font-family="Helvetica" font-weight="bold" font-size="18px">*</text>
<line x1="311" y1="369" x2="310" y2="355" stroke="black" stroke-width="4" />
<line x1="311" y1="369" x2="297" y2="370" stroke="black" stroke-width="4" />

<!-- State transition from S_FINAL to S_TRAP -->
<line x1="561" y1="232" x2="389" y2="369" stroke="black" stroke-width="4" />
<text x="465" y="290" font-family="Helvetica" font-weight="bold" font-size="18px">*</text>
<line x1="389" y1="369" x2="390" y2="355" stroke="black" stroke-width="4" />
<line x1="389" y1="369" x2="403" y2="370" stroke="black" stroke-width="4" />

<!-- State transition from S_TEXT to S_TRAP -->
<line x1="350" y1="250" x2="350" y2="350" stroke="black" stroke-width="4" />
<text x="355" y="290" font-family="Helvetica" font-weight="bold" font-size="18px">\n</text>
<line x1="350" y1="350" x2="338" y2="338" stroke="black" stroke-width="4" />
<line x1="350" y1="350" x2="362" y2="338" stroke="black" stroke-width="4" />

</svg>
